<?xml version="1.0" encoding="utf-8"?>
<!-- Generator: Adobe Illustrator 19.2.1, SVG Export Plug-In . SVG Version: 6.00 Build 0)  -->
<svg version="1.1" xmlns="http://www.w3.org/2000/svg" xmlns:xlink="http://www.w3.org/1999/xlink" x="0px" y="0px"
	 viewBox="0 0 200 200" style="enable-background:new 0 0 200 200;" xml:space="preserve">
<style type="text/css">
	.st0{fill:#FFFFFF;}
	.st1{fill:#007F3E;}
	.st2{stroke:#FFFFFF;stroke-width:10;stroke-miterlimit:10;}
</style>
<g id="Circle">
	<g>
		<path class="st0" d="M100,178.8c-43.4,0-78.8-35.3-78.8-78.8S56.6,21.2,100,21.2s78.8,35.3,78.8,78.8S143.4,178.8,100,178.8z"/>
		<path class="st0" d="M100,25c41.4,0,75,33.6,75,75s-33.6,75-75,75s-75-33.6-75-75S58.6,25,100,25 M100,17.5
			c-45.5,0-82.5,37-82.5,82.5s37,82.5,82.5,82.5s82.5-37,82.5-82.5S145.5,17.5,100,17.5L100,17.5z"/>
		<path class="st1" d="M100,32.5c37.2,0,67.5,30.3,67.5,67.5s-30.3,67.5-67.5,67.5S32.5,137.2,32.5,100S62.8,32.5,100,32.5 M100,25
			c-41.4,0-75,33.6-75,75s33.6,75,75,75s75-33.6,75-75S141.4,25,100,25L100,25z"/>
	</g>
</g>
<g id="Bowtie">
	<g>
		<g>
			<path class="st2" d="M158.4,98.5l1.1-0.6c3.7-2,4.2-4.8,2.3-8.5c-0.8-1.6-1.9-3-2.9-4.5c-1.1-1.5-2.3-3-3.2-4.8
				c-2.2-4.2-1.5-7.4,1-9.7c0-0.1,0-0.1,0-0.2c-3.4,0.8-6.4-0.4-8.5-4.6c-0.9-1.8-1.5-3.5-2.1-5.3c-0.6-1.7-1.2-3.4-2-4.9
				c-1.6-3-3.6-4.3-6.5-3.5c-0.1,0-0.3-0.1-0.4-0.1c-0.6,0-1.4,0.4-2.4,1.2l-0.1,0.1l-1.9-3.6l0.2-0.1c-0.1,0-0.2,0-0.3,0
				c-7.8,7.9-16.9,25.3-25.9,42.2c-2.3-2.4-5.5-3.2-11.3-0.2c-5.8,3-7,6.1-6.3,9.4c-19.1-2.3-38.6-4.8-49.5-3
				c-0.1,0.1-0.1,0.1-0.1,0.2l0.2-0.1l1.9,3.6l-0.1,0.1c-1.1,0.3-2,0.7-2.3,1.3c-0.1,0.1-0.1,0.3-0.2,0.4c-2.3,1.9-2.4,4.3-0.8,7.3
				c0.8,1.5,1.9,3,2.9,4.5c1.1,1.5,2.2,3,3.1,4.7c2.3,4.2,1.5,7.3-1.1,9.6c0,0.1,0,0.1,0,0.2c3.4-0.8,6.4,0.5,8.6,4.7
				c0.9,1.8,1.5,3.6,2.1,5.4c0.6,1.7,1.2,3.4,2,5c1.9,3.7,4.6,4.9,8.3,3l1.1-0.6l1.9,3.6l-0.2,0.1c0.1,0,0.2,0,0.3,0
				c7.6-7.9,17-24,26.7-41c2.3,2.4,5.5,3.2,11.3,0.2c5.8-3,7-6.1,6.3-9.4c19.4,1.8,38,3.3,48.8,1.6c0.1-0.1,0.1-0.2,0.2-0.2
				l-0.2,0.1L158.4,98.5z"/>
			<path class="st2" d="M174.8,87.7c-1.1-2.2-2.6-4.2-4.1-6.2c-1.4-2.1-2.9-4.1-3.9-6.2c-1.3-2.6-2.3-6.4,3.4-9.4l-2.1-4.1
				c-5.6,2.9-8,0.2-9.6-2.5c-1.2-2.2-2-4.6-2.8-7c-0.9-2.5-1.7-4.9-2.9-7.1c-3.8-7.4-10.3-7.9-17.1-4.4l-1.4,0.7l-0.2,0.1l2.3,4.4
				l1.4-0.7c4.8-2.4,7.7-0.8,10,3.5c1,1.8,1.6,3.9,2.4,6c0.7,2.2,1.4,4.3,2.5,6.4c2.6,5.2,6.2,6.5,10.3,5.6l0.1,0.2c0,0,0,0,0,0
				c-3.1,2.8-3.9,6.6-1.3,11.7c1.1,2.2,2.5,4,3.8,5.8c1.2,1.8,2.6,3.6,3.6,5.5c2.3,4.5,1.7,7.9-2.8,10.3l-1.4,0.7l2.3,4.4l0.2-0.1
				l1.4-0.8C175.5,101.3,179.1,95.8,174.8,87.7z"/>
			<path class="st2" d="M62.4,154.6c-4.5,2.3-7.7,0.9-10-3.6c-1-1.9-1.7-4-2.4-6.1c-0.7-2.2-1.4-4.3-2.6-6.5
				c-2.7-5.1-6.3-6.6-10.4-5.7l-0.1-0.2c0,0,0,0,0,0c3.1-2.8,4-6.6,1.3-11.6c-1.1-2.2-2.4-3.9-3.8-5.7c-1.2-1.8-2.6-3.6-3.5-5.4
				c-2.3-4.3-1.9-7.7,2.8-10.2l1.4-0.7l-2.3-4.4l-0.2,0.1l-1.4,0.7c-6.8,3.5-10.1,9.2-6.2,16.6c1.1,2.2,2.6,4.2,4.1,6.4
				c1.4,2,2.9,4.1,4.1,6.3c1.4,2.8,2.2,6.4-3.4,9.3l2.1,4.1c5.7-3,8.3,0.1,9.6,2.6c1.1,2.1,1.9,4.4,2.8,6.8c0.7,2.4,1.6,4.8,2.7,6.9
				c4.2,8.1,10.8,8.3,17.3,4.9l1.4-0.8l0.2-0.1l-2.3-4.4L62.4,154.6z"/>
		</g>
		<g>
			<g>
				<path d="M89.9,100.8l4.4,8.4c-9.8,17.1-19.3,33.5-27,41.5c-0.1,0-0.2,0-0.3,0l0.2-0.1l-1.9-3.6l-1.1,0.6c-3.7,1.9-6.4,0.7-8.3-3
					c-0.8-1.6-1.4-3.3-2-5c-0.6-1.8-1.2-3.6-2.1-5.4c-2.2-4.2-5.2-5.5-8.6-4.7c0,0,0-0.1,0-0.2c2.5-2.3,3.3-5.4,1.1-9.6
					c-0.9-1.8-2-3.2-3.1-4.7c-1-1.5-2.1-2.9-2.9-4.5c-1.9-3.6-1.5-6.3,2.3-8.4l1.1-0.6l-1.9-3.6L39.5,98c0-0.1,0.1-0.1,0.1-0.2
					C50.7,95.9,70.6,98.4,89.9,100.8z M158.4,98.5l1.1-0.6c3.7-2,4.2-4.8,2.3-8.5c-0.8-1.6-1.9-3-2.9-4.5c-1.1-1.5-2.3-3-3.2-4.8
					c-2.2-4.2-1.5-7.4,1-9.7c0-0.1,0-0.1,0-0.2c-3.4,0.8-6.4-0.4-8.5-4.6c-0.9-1.8-1.5-3.5-2.1-5.3c-0.6-1.7-1.2-3.4-2-4.9
					c-1.9-3.6-4.3-4.9-8.3-2.9l-1.1,0.6l-1.9-3.6l0.2-0.1c-0.1,0-0.2,0-0.3,0c-7.9,8-17.2,25.7-26.3,42.9l4.4,8.4
					c19.6,1.8,38.6,3.4,49.5,1.7c0.1-0.1,0.1-0.2,0.2-0.2l-0.2,0.1L158.4,98.5z"/>
				<path class="st1" d="M30.9,109.8c1,1.8,2.3,3.6,3.5,5.4c1.4,1.8,2.7,3.6,3.8,5.7c2.7,5.1,1.8,8.8-1.3,11.6c0,0,0,0,0,0l0.1,0.2
					c4.1-0.9,7.7,0.6,10.4,5.7c1.1,2.2,1.8,4.3,2.6,6.5c0.8,2,1.4,4.1,2.4,6.1c2.3,4.5,5.5,5.9,10,3.6l1.4-0.7l2.3,4.4l-0.2,0.1
					l-1.4,0.8c-6.6,3.4-13.1,3.2-17.3-4.9c-1.1-2.2-2-4.6-2.7-6.9c-0.9-2.4-1.7-4.7-2.8-6.8c-1.3-2.6-3.9-5.6-9.6-2.6l-2.1-4.1
					c5.6-2.9,4.8-6.5,3.4-9.3c-1.2-2.2-2.7-4.3-4.1-6.3c-1.5-2.2-3-4.2-4.1-6.4c-3.8-7.4-0.6-13,6.2-16.6l1.4-0.7l0.2-0.1l2.3,4.4
					l-1.4,0.7C29,102.1,28.7,105.4,30.9,109.8z M158.4,59.3c-1.2-2.2-2-4.6-2.8-7c-0.9-2.5-1.7-4.9-2.9-7.1
					c-3.8-7.4-10.3-7.9-17.1-4.4l-1.4,0.7l-0.2,0.1l2.3,4.4l1.4-0.7c4.8-2.4,7.7-0.8,10,3.5c1,1.8,1.6,3.9,2.4,6
					c0.7,2.2,1.4,4.2,2.5,6.4c2.6,5.2,6.2,6.5,10.3,5.6l0.1,0.2c0,0,0,0,0,0c-3.1,2.8-3.9,6.6-1.3,11.7c1.1,2.2,2.5,4,3.8,5.8
					c1.2,1.8,2.6,3.6,3.6,5.5c2.3,4.5,1.7,7.9-2.8,10.3l-1.4,0.7l2.3,4.4l0.2-0.1l1.4-0.8c6.6-3.4,10.1-8.9,5.9-17
					c-1.1-2.2-2.6-4.2-4.1-6.2c-1.4-2.1-2.9-4.1-3.9-6.2c-1.3-2.6-2.3-6.4,3.4-9.4l-2.1-4.1C162.4,64.8,160,62.1,158.4,59.3z"/>
			</g>
			<g>
				<path class="st0" d="M39.2,102.8c-3,4.5,7.1,9.1,50.8,0.6C78.5,101.4,42.1,98.3,39.2,102.8z"/>
				<path class="st0" d="M79.2,122.7c1.7-6.2,3.9-10.2,13-14.9C86.2,112,82.1,115.9,79.2,122.7z"/>
				<path class="st0" d="M75.1,117.8c3.6-5.4,6.9-8.4,17.1-10C85.2,109.8,80.1,112.2,75.1,117.8z"/>
				<path class="st0" d="M137.2,51.8c5.4,0.1,3.4,11-28.6,41.9C113.5,83.1,131.8,51.6,137.2,51.8z"/>
				<path class="st0" d="M130.5,96c-6.1-2.2-10.6-2.7-19.7,2.1C117.8,95.5,123.3,94.5,130.5,96z"/>
				<path class="st0" d="M128.8,89.8c-6.5-0.1-10.9,0.9-18,8.3C116.6,93.5,121.4,90.7,128.8,89.8z"/>
			</g>
			<path d="M109.7,95.8c2.7,5.2,4.1,9.7-4.4,14.2s-11.5,0.7-14.2-4.5c-2.7-5.2-4.1-9.7,4.4-14.2S107,90.6,109.7,95.8z"/>
		</g>
	</g>
</g>
</svg>
