<?xml version="1.0" encoding="utf-8"?>
<!-- Generator: Adobe Illustrator 19.2.1, SVG Export Plug-In . SVG Version: 6.00 Build 0)  -->
<svg version="1.1" id="Layer_1" xmlns="http://www.w3.org/2000/svg" xmlns:xlink="http://www.w3.org/1999/xlink" x="0px" y="0px"
	 viewBox="0 0 100 100" style="enable-background:new 0 0 100 100;" xml:space="preserve">
<style type="text/css">
	.Arched_x0020_Green{fill:url(#SVGID_1_);stroke:#FFFFFF;stroke-width:0.25;stroke-miterlimit:1;}
	.st0{display:none;}
	.st1{display:inline;}
	.st2{fill:#007F3E;}
</style>
<linearGradient id="SVGID_1_" gradientUnits="userSpaceOnUse" x1="-331.5654" y1="153.5942" x2="-330.8583" y2="152.8871">
	<stop  offset="0" style="stop-color:#20AC4B"/>
	<stop  offset="0.9831" style="stop-color:#19361A"/>
</linearGradient>
<g id="Menu">
	<path class="st2" d="M80,74H20c-2.2,0-4-1.8-4-4c0-2.2,1.8-4,4-4h60c2.2,0,4,1.8,4,4C84,72.2,82.2,74,80,74z M80,54H20
		c-2.2,0-4-1.8-4-4c0-2.2,1.8-4,4-4h60c2.2,0,4,1.8,4,4C84,52.2,82.2,54,80,54z M80,34H20c-2.2,0-4-1.8-4-4c0-2.2,1.8-4,4-4h60
		c2.2,0,4,1.8,4,4C84,32.2,82.2,34,80,34z"/>
</g>
</svg>
